<svg xmlns="http://www.w3.org/2000/svg" width="512" height="512" viewBox="0 0 512 512" role="img" aria-label="Hospital emoji style">
  <defs>
    <linearGradient id="bg" x1="0" y1="0" x2="0" y2="1">
      <stop offset="0" stop-color="#dff4ff"/>
      <stop offset="1" stop-color="#b9e6ff"/>
    </linearGradient>
    <filter id="shadow" x="-20%" y="-20%" width="140%" height="140%">
      <feDropShadow dx="0" dy="10" stdDeviation="10" flood-color="#7aa7c7" flood-opacity="0.28"/>
    </filter>
  </defs>

  <rect width="512" height="512" rx="120" fill="url(#bg)"/>

  <g filter="url(#shadow)">
    <rect x="110" y="130" width="292" height="250" rx="28" fill="#ffffff"/>
    <rect x="145" y="92" width="222" height="70" rx="24" fill="#ffffff"/>

    <rect x="224" y="104" width="64" height="44" rx="10" fill="#ff5a6e"/>
    <rect x="234" y="94" width="44" height="64" rx="10" fill="#ff5a6e"/>

    <rect x="150" y="190" width="52" height="52" rx="10" fill="#bde7ff"/>
    <rect x="230" y="190" width="52" height="52" rx="10" fill="#bde7ff"/>
    <rect x="310" y="190" width="52" height="52" rx="10" fill="#bde7ff"/>

    <rect x="150" y="264" width="52" height="52" rx="10" fill="#bde7ff"/>
    <rect x="310" y="264" width="52" height="52" rx="10" fill="#bde7ff"/>

    <rect x="223" y="258" width="66" height="122" rx="18" fill="#7ec8ff"/>
    <rect x="244" y="282" width="24" height="98" rx="10" fill="#5fb4f4"/>

    <rect x="128" y="380" width="256" height="22" rx="11" fill="#8dd2ff"/>
  </g>

  <circle cx="164" cy="410" r="10" fill="#7ec8ff" opacity="0.8"/>
  <circle cx="347" cy="104" r="12" fill="#ffffff" opacity="0.65"/>
  <circle cx="382" cy="128" r="8" fill="#ffffff" opacity="0.5"/>
</svg>
