<svg xmlns="http://www.w3.org/2000/svg" viewBox="0 0 512 512" width="512" height="512" role="img" aria-labelledby="title desc">
  <title id="title">Apple illustration</title>
  <desc id="desc">A simple flat vector illustration of a red apple with leaf.</desc>
  <defs>
    <linearGradient id="appleBody" x1="0" y1="0" x2="1" y2="1">
      <stop offset="0%" stop-color="#ff6b6b"/>
      <stop offset="100%" stop-color="#d62828"/>
    </linearGradient>
    <linearGradient id="leafGrad" x1="0" y1="0" x2="1" y2="1">
      <stop offset="0%" stop-color="#7bdc65"/>
      <stop offset="100%" stop-color="#2d8f3f"/>
    </linearGradient>
  </defs>

  <g>
    <path d="M267 92c-8-26 6-49 27-64 4-3 9 1 7 6-9 19-8 37 4 54 3 5-1 11-7 11-12-1-23-3-31-7z" fill="#6b3f1d"/>
    <path d="M279 79c35-31 78-19 102 9-35 16-70 18-102-9z" fill="url(#leafGrad)"/>
    <path d="M167 146c31-25 67-35 89-28 22-7 58 3 89 28 57 46 80 127 55 202-28 85-99 132-144 132s-116-47-144-132c-25-75-2-156 55-202z" fill="url(#appleBody)"/>
    <path d="M257 118c17 0 33 7 45 20 4 4 2 11-4 12-26 5-40 20-42 44 0 6-7 9-12 6-18-11-38-11-56 0-5 3-12 0-12-6-2-24-16-39-42-44-6-1-8-8-4-12 12-13 28-20 45-20 20 0 34 9 41 17 7-8 21-17 41-17z" fill="#ffd6d6" opacity="0.22"/>
    <ellipse cx="192" cy="231" rx="34" ry="55" fill="#ffffff" opacity="0.16" transform="rotate(-22 192 231)"/>
    <path d="M256 164c-14-15-43-30-74-17-6 2-11-4-8-9 9-15 28-31 55-34 17-2 29 2 36 6 7-4 19-8 36-6 27 3 46 19 55 34 3 5-2 11-8 9-31-13-60 2-74 17-5 5-13 5-18 0z" fill="#8b1e1e" opacity="0.2"/>
    <circle cx="325" cy="333" r="18" fill="#ffb3b3" opacity="0.18"/>
  </g>
</svg>
