<svg xmlns="http://www.w3.org/2000/svg" viewBox="0 0 200 120">
  <!-- 左翼 -->
  <path d="
    M10,60
    Q30,30 50,50
    Q60,30 80,50
    Q70,70 50,65
    Q30,80 10,60
  " fill="#1f2937"></path>

  <!-- 右翼 -->
  <path d="
    M190,60
    Q170,30 150,50
    Q140,30 120,50
    Q130,70 150,65
    Q170,80 190,60
  " fill="#1f2937"></path>

  <!-- 胴体 -->
  <ellipse cx="100" cy="65" rx="15" ry="25" fill="#1f2937"></ellipse>

  <!-- 頭 -->
  <circle cx="100" cy="35" r="12" fill="#1f2937"></circle>

  <!-- 耳 -->
  <polygon points="92,20 96,35 88,35" fill="#1f2937"></polygon>
  <polygon points="108,20 112,35 104,35" fill="#1f2937"></polygon>

  <!-- 目 -->
  <circle cx="96" cy="35" r="2" fill="#ffffff"></circle>
  <circle cx="104" cy="35" r="2" fill="#ffffff"></circle>
</svg>